# xmcd
#
# Track frame offsets:
#	150
#	13425
#	27761
#	45613
#	65671
#	80409
#	94056
#	105683
#	125206
#	141360
#	159598
#	177148
#	192268
#	205398
#	218473
#
# Disc length: 3145 seconds
#
# Revision: 0
# Processed by: cddbd v1.5.1PL2 Copyright (c) Steve Scherf et al.
# Submitted via: dBpowerAMP V4.0
#
DISCID=d80c470f
DTITLE=Bellamy Brothers - The Lost Tracks
DYEAR=2006
DGENRE=Country
TTITLE0=Slippin Away
TTITLE1=They Could Put Me In Jail
TTITLE2=Spiders And Snakes
TTITLE3=Livin In The West
TTITLE4=Inside Of My Guitar
TTITLE5=Lovin On
TTITLE6=Don't Give A Rip
TTITLE7=She Don't Know She's Perfect
TTITLE8=Crossfire
TTITLE9=Satin Sheets
TTITLE10=Let's Fall In Love Again
TTITLE11=When The Music Meant Everything
TTITLE12=Lets Rodeo
TTITLE13=Hillbilly Hell
TTITLE14=Too Much Is Not Enough
EXTD=cse1
EXTT0=
EXTT1=
EXTT2=
EXTT3=
EXTT4=
EXTT5=
EXTT6=
EXTT7=
EXTT8=
EXTT9=
EXTT10=
EXTT11=
EXTT12=
EXTT13=
EXTT14=
PLAYORDER=
